<svg xmlns="http://www.w3.org/2000/svg" width="1000" height="335" aria-label="The WordAds module registers the Ads section on self-hosted sites and skips the WordPress.com platform, jetpack-mu-wpcom registers it on Atomic and Simple by plan feature, both at priority 20 skipping an existing ads slug, and the standalone plugin has no registrant." role="img" viewBox="0 0 1000 335"><style>text{font:12px ui-sans-serif,system-ui,-apple-system,&quot;Segoe UI&quot;,sans-serif;fill:#1f2328}.mono{font-family:ui-monospace,SFMono-Regular,Menlo,monospace;font-size:11px}.title{font-weight:600}.muted{fill:#57606a}.box{fill:#fff;stroke:#1f2328;stroke-width:1.2}.box-accent{fill:#ddf4ff;stroke:#0969da;stroke-width:1.4}.box-muted{fill:#f6f8fa;stroke:#8c959f;stroke-width:1.2;stroke-dasharray:4 3}.lane{fill:#f6f8fa;stroke:#d0d7de;stroke-width:1}.edge{stroke:#1f2328;stroke-width:1.3;fill:none}.edge-dashed{stroke-dasharray:5 4}.arrowhead{fill:#1f2328}@media (prefers-color-scheme:dark){text{fill:#e6edf3}.muted{fill:#8b949e}.box{fill:#0d1117;stroke:#e6edf3}.box-accent{fill:#0c2d6b;stroke:#58a6ff}.box-muted,.lane{fill:#161b22;stroke:#6e7681}.lane{stroke:#30363d}.edge{stroke:#e6edf3}.arrowhead{fill:#e6edf3}}</style><defs><marker id="arrow" markerHeight="7" markerWidth="7" orient="auto-start-reverse" refX="9" refY="5" viewBox="0 0 10 10"><path d="M 0 0 L 10 5 L 0 10 z" class="arrowhead"/></marker></defs><rect width="230" height="295" x="20" y="25" class="lane" rx="6"/><text x="135" y="48" class="title" text-anchor="middle">Self-hosted Jetpack</text><rect width="230" height="295" x="270" y="25" class="lane" rx="6"/><text x="385" y="48" class="title" text-anchor="middle">Atomic</text><rect width="230" height="295" x="520" y="25" class="lane" rx="6"/><text x="635" y="48" class="title" text-anchor="middle">WordPress.com Simple</text><rect width="210" height="295" x="770" y="25" class="lane" rx="6"/><text x="875" y="48" class="title" text-anchor="middle">Standalone plugin</text><rect width="445" height="66" x="35" y="80" class="box" rx="4"/><text x="258" y="101" class="title" text-anchor="middle">WordAds module, Jetpack plugin</text><text x="258" y="117" class="muted" text-anchor="middle">active module on a connected site; skips the WordPress.com platform</text><text x="258" y="133" class="mono" text-anchor="middle">modules/wordads/php/class-wordads-premium-analytics.php</text><rect width="380" height="66" x="350" y="170" class="box" rx="4"/><text x="540" y="191" class="title" text-anchor="middle">jetpack-mu-wpcom</text><text x="540" y="207" class="mono" text-anchor="middle">wpcom_site_has_feature( &apos;wordads&apos; )</text><text x="540" y="223" class="mono" text-anchor="middle">src/features/premium-analytics/wordads-section.php</text><rect width="190" height="72" x="780" y="112" class="box-muted" rx="4"/><text x="875" y="134" class="title" text-anchor="middle">no registrant</text><text x="875" y="150" class="muted" text-anchor="middle">no Ads section</text><text x="875" y="166" class="muted" text-anchor="middle">without WordAds</text><rect width="695" height="44" x="35" y="275" class="box-accent" rx="4"/><text x="382" y="293" class="title" text-anchor="middle">Dashboard_Section_Registry: wordads/ads, slug ads</text><text x="382" y="309" class="muted" text-anchor="middle">both hook at priority 20 and skip an existing ads slug (deploy skew)</text><polyline marker-end="url(#arrow)" points="140 146 140 275" class="edge"/><polyline points="310 146 310 166" class="edge edge-dashed"/><text x="318" y="161" class="mono muted">skips: is_wpcom_platform()</text><polyline marker-end="url(#arrow)" points="440 236 440 275" class="edge"/><polyline marker-end="url(#arrow)" points="635 236 635 275" class="edge"/><text x="432" y="262" class="muted" text-anchor="end">owner: mu-wpcom</text></svg>